<mxfile host="app.diagrams.net" modified="2023-04-24T13:52:25.358Z" agent="Mozilla/5.0 (Windows NT 10.0; Win64; x64) AppleWebKit/537.36 (KHTML, like Gecko) Chrome/112.0.0.0 Safari/537.36 Edg/112.0.1722.58" etag="EtIeUfoBkiMex2BQE72Z" version="21.2.1" type="device">
  <diagram name="Page-1" id="fcWiM5-JBZwDHhLtpk5f">
    <mxGraphModel dx="2000" dy="670" grid="1" gridSize="10" guides="1" tooltips="1" connect="1" arrows="1" fold="1" page="1" pageScale="1" pageWidth="827" pageHeight="1169" math="0" shadow="0">
      <root>
        <mxCell id="0" />
        <mxCell id="1" parent="0" />
        <mxCell id="Uo7VwQWX_ubqQY6SiLOP-44" value="Maintain &lt;br&gt;Purchase Order" style="ellipse;whiteSpace=wrap;html=1;" parent="1" vertex="1">
          <mxGeometry x="-4" y="478" width="104" height="60" as="geometry" />
        </mxCell>
        <mxCell id="Uo7VwQWX_ubqQY6SiLOP-45" value="Store &lt;br&gt;Clerk" style="shape=umlActor;verticalLabelPosition=bottom;verticalAlign=top;html=1;outlineConnect=0;" parent="1" vertex="1">
          <mxGeometry x="-140" y="468" width="30" height="60" as="geometry" />
        </mxCell>
        <mxCell id="Uo7VwQWX_ubqQY6SiLOP-49" value="" style="endArrow=classic;html=1;rounded=0;entryX=0;entryY=0.5;entryDx=0;entryDy=0;" parent="1" target="Uo7VwQWX_ubqQY6SiLOP-44" edge="1">
          <mxGeometry width="50" height="50" relative="1" as="geometry">
            <mxPoint x="-110" y="508" as="sourcePoint" />
            <mxPoint x="-60" y="458" as="targetPoint" />
          </mxGeometry>
        </mxCell>
        <mxCell id="Uo7VwQWX_ubqQY6SiLOP-104" value="Store&amp;nbsp;&lt;br&gt;Supervisor" style="shape=umlActor;verticalLabelPosition=bottom;verticalAlign=top;html=1;outlineConnect=0;" parent="1" vertex="1">
          <mxGeometry x="-10" y="1717" width="30" height="60" as="geometry" />
        </mxCell>
        <mxCell id="Uo7VwQWX_ubqQY6SiLOP-105" value="" style="endArrow=none;dashed=1;html=1;rounded=0;" parent="1" source="Uo7VwQWX_ubqQY6SiLOP-125" edge="1">
          <mxGeometry width="50" height="50" relative="1" as="geometry">
            <mxPoint x="170" y="2562" as="sourcePoint" />
            <mxPoint x="170" y="1812" as="targetPoint" />
          </mxGeometry>
        </mxCell>
        <mxCell id="Uo7VwQWX_ubqQY6SiLOP-106" value="Form Approve Purchase Order&amp;nbsp;" style="shape=umlBoundary;whiteSpace=wrap;html=1;" parent="1" vertex="1">
          <mxGeometry x="110" y="1721" width="100" height="80" as="geometry" />
        </mxCell>
        <mxCell id="Uo7VwQWX_ubqQY6SiLOP-107" value="" style="endArrow=none;dashed=1;html=1;rounded=0;" parent="1" edge="1">
          <mxGeometry width="50" height="50" relative="1" as="geometry">
            <mxPoint x="330" y="2562" as="sourcePoint" />
            <mxPoint x="330.47" y="1812" as="targetPoint" />
          </mxGeometry>
        </mxCell>
        <mxCell id="Uo7VwQWX_ubqQY6SiLOP-108" value="" style="endArrow=none;dashed=1;html=1;rounded=0;" parent="1" edge="1">
          <mxGeometry width="50" height="50" relative="1" as="geometry">
            <mxPoint x="500" y="2563" as="sourcePoint" />
            <mxPoint x="500.47" y="1813" as="targetPoint" />
          </mxGeometry>
        </mxCell>
        <mxCell id="Uo7VwQWX_ubqQY6SiLOP-109" value="Purchase&amp;nbsp;&lt;br&gt;Order&lt;br&gt;Record" style="ellipse;shape=umlEntity;whiteSpace=wrap;html=1;" parent="1" vertex="1">
          <mxGeometry x="460" y="1717" width="80" height="80" as="geometry" />
        </mxCell>
        <mxCell id="Uo7VwQWX_ubqQY6SiLOP-110" value="Approve Purchase Order Controller" style="ellipse;shape=umlControl;whiteSpace=wrap;html=1;" parent="1" vertex="1">
          <mxGeometry x="286" y="1711" width="80" height="90" as="geometry" />
        </mxCell>
        <mxCell id="Uo7VwQWX_ubqQY6SiLOP-111" value="" style="endArrow=none;dashed=1;html=1;rounded=0;" parent="1" edge="1">
          <mxGeometry width="50" height="50" relative="1" as="geometry">
            <mxPoint x="660" y="2563" as="sourcePoint" />
            <mxPoint x="660.47" y="1813" as="targetPoint" />
          </mxGeometry>
        </mxCell>
        <mxCell id="Uo7VwQWX_ubqQY6SiLOP-113" value="" style="endArrow=none;dashed=1;html=1;rounded=0;" parent="1" edge="1">
          <mxGeometry width="50" height="50" relative="1" as="geometry">
            <mxPoint x="820" y="2562" as="sourcePoint" />
            <mxPoint x="820.47" y="1812" as="targetPoint" />
          </mxGeometry>
        </mxCell>
        <mxCell id="Uo7VwQWX_ubqQY6SiLOP-114" value="Reorder Record" style="ellipse;shape=umlEntity;whiteSpace=wrap;html=1;" parent="1" vertex="1">
          <mxGeometry x="620" y="1721" width="80" height="80" as="geometry" />
        </mxCell>
        <mxCell id="Uo7VwQWX_ubqQY6SiLOP-115" value="" style="endArrow=none;dashed=1;html=1;rounded=0;" parent="1" edge="1">
          <mxGeometry width="50" height="50" relative="1" as="geometry">
            <mxPoint x="980" y="2562" as="sourcePoint" />
            <mxPoint x="980.47" y="1812" as="targetPoint" />
          </mxGeometry>
        </mxCell>
        <mxCell id="Uo7VwQWX_ubqQY6SiLOP-116" value="Email Engine&amp;nbsp;" style="shape=umlBoundary;whiteSpace=wrap;html=1;" parent="1" vertex="1">
          <mxGeometry x="762" y="1721" width="100" height="80" as="geometry" />
        </mxCell>
        <mxCell id="Uo7VwQWX_ubqQY6SiLOP-118" value="Email Engine&amp;nbsp;&lt;br&gt;System" style="shape=umlActor;verticalLabelPosition=bottom;verticalAlign=top;html=1;outlineConnect=0;" parent="1" vertex="1">
          <mxGeometry x="963" y="1717" width="30" height="60" as="geometry" />
        </mxCell>
        <mxCell id="Uo7VwQWX_ubqQY6SiLOP-119" value="" style="endArrow=none;dashed=1;html=1;rounded=0;" parent="1" edge="1">
          <mxGeometry width="50" height="50" relative="1" as="geometry">
            <mxPoint x="8" y="2562" as="sourcePoint" />
            <mxPoint x="8" y="1812" as="targetPoint" />
          </mxGeometry>
        </mxCell>
        <mxCell id="Uo7VwQWX_ubqQY6SiLOP-121" value="" style="endArrow=open;endFill=1;endSize=12;html=1;rounded=0;" parent="1" edge="1">
          <mxGeometry width="160" relative="1" as="geometry">
            <mxPoint x="5" y="1949" as="sourcePoint" />
            <mxPoint x="165" y="1949" as="targetPoint" />
          </mxGeometry>
        </mxCell>
        <mxCell id="Uo7VwQWX_ubqQY6SiLOP-122" value="Enter Purchase&lt;br&gt;&amp;nbsp;Order Number ()" style="text;html=1;align=center;verticalAlign=middle;resizable=0;points=[];autosize=1;strokeColor=none;fillColor=none;" parent="1" vertex="1">
          <mxGeometry x="188" y="1948" width="110" height="40" as="geometry" />
        </mxCell>
        <mxCell id="Uo7VwQWX_ubqQY6SiLOP-123" value="" style="endArrow=open;endFill=1;endSize=12;html=1;rounded=0;" parent="1" edge="1">
          <mxGeometry width="160" relative="1" as="geometry">
            <mxPoint x="171" y="1966" as="sourcePoint" />
            <mxPoint x="331" y="1966" as="targetPoint" />
          </mxGeometry>
        </mxCell>
        <mxCell id="Uo7VwQWX_ubqQY6SiLOP-124" value="" style="endArrow=none;dashed=1;html=1;rounded=0;" parent="1" target="Uo7VwQWX_ubqQY6SiLOP-125" edge="1">
          <mxGeometry width="50" height="50" relative="1" as="geometry">
            <mxPoint x="170" y="2562" as="sourcePoint" />
            <mxPoint x="170" y="1812" as="targetPoint" />
          </mxGeometry>
        </mxCell>
        <mxCell id="Uo7VwQWX_ubqQY6SiLOP-125" value="" style="html=1;points=[];perimeter=orthogonalPerimeter;outlineConnect=0;targetShapes=umlLifeline;portConstraint=eastwest;newEdgeStyle={&quot;edgeStyle&quot;:&quot;elbowEdgeStyle&quot;,&quot;elbow&quot;:&quot;vertical&quot;,&quot;curved&quot;:0,&quot;rounded&quot;:0};" parent="1" vertex="1">
          <mxGeometry x="165" y="1900" width="10" height="422" as="geometry" />
        </mxCell>
        <mxCell id="Uo7VwQWX_ubqQY6SiLOP-126" value="" style="html=1;points=[];perimeter=orthogonalPerimeter;outlineConnect=0;targetShapes=umlLifeline;portConstraint=eastwest;newEdgeStyle={&quot;edgeStyle&quot;:&quot;elbowEdgeStyle&quot;,&quot;elbow&quot;:&quot;vertical&quot;,&quot;curved&quot;:0,&quot;rounded&quot;:0};" parent="1" vertex="1">
          <mxGeometry x="330" y="1898" width="10" height="422" as="geometry" />
        </mxCell>
        <mxCell id="Uo7VwQWX_ubqQY6SiLOP-127" value="" style="endArrow=open;endFill=1;endSize=12;html=1;rounded=0;" parent="1" edge="1">
          <mxGeometry width="160" relative="1" as="geometry">
            <mxPoint x="340" y="1981" as="sourcePoint" />
            <mxPoint x="500" y="1981" as="targetPoint" />
          </mxGeometry>
        </mxCell>
        <mxCell id="Uo7VwQWX_ubqQY6SiLOP-129" value="" style="endArrow=open;endFill=1;endSize=12;html=1;rounded=0;" parent="1" edge="1">
          <mxGeometry width="160" relative="1" as="geometry">
            <mxPoint x="330" y="2043" as="sourcePoint" />
            <mxPoint x="175" y="2043" as="targetPoint" />
          </mxGeometry>
        </mxCell>
        <mxCell id="Uo7VwQWX_ubqQY6SiLOP-131" value="" style="endArrow=open;endFill=1;endSize=12;html=1;rounded=0;" parent="1" edge="1">
          <mxGeometry width="160" relative="1" as="geometry">
            <mxPoint x="10" y="2082" as="sourcePoint" />
            <mxPoint x="170" y="2082" as="targetPoint" />
          </mxGeometry>
        </mxCell>
        <mxCell id="Uo7VwQWX_ubqQY6SiLOP-137" value="" style="endArrow=open;endFill=1;endSize=12;html=1;rounded=0;" parent="1" edge="1">
          <mxGeometry width="160" relative="1" as="geometry">
            <mxPoint x="340" y="2158.9999999999995" as="sourcePoint" />
            <mxPoint x="500" y="2159" as="targetPoint" />
          </mxGeometry>
        </mxCell>
        <mxCell id="Uo7VwQWX_ubqQY6SiLOP-138" value="Update Purchase Order Record ( )" style="text;html=1;align=center;verticalAlign=middle;resizable=0;points=[];autosize=1;strokeColor=none;fillColor=none;" parent="1" vertex="1">
          <mxGeometry x="326" y="2133" width="210" height="30" as="geometry" />
        </mxCell>
        <mxCell id="Uo7VwQWX_ubqQY6SiLOP-139" value="Update Reorder Record ()" style="text;html=1;align=center;verticalAlign=middle;resizable=0;points=[];autosize=1;strokeColor=none;fillColor=none;" parent="1" vertex="1">
          <mxGeometry x="334" y="2184" width="160" height="30" as="geometry" />
        </mxCell>
        <mxCell id="Uo7VwQWX_ubqQY6SiLOP-140" value="" style="endArrow=open;endFill=1;endSize=12;html=1;rounded=0;" parent="1" edge="1">
          <mxGeometry width="160" relative="1" as="geometry">
            <mxPoint x="340" y="2210" as="sourcePoint" />
            <mxPoint x="660" y="2210" as="targetPoint" />
          </mxGeometry>
        </mxCell>
        <mxCell id="Uo7VwQWX_ubqQY6SiLOP-144" value="Enter Purchase Order Number()" style="text;html=1;align=center;verticalAlign=middle;resizable=0;points=[];autosize=1;strokeColor=none;fillColor=none;" parent="1" vertex="1">
          <mxGeometry x="-39" y="1927" width="190" height="30" as="geometry" />
        </mxCell>
        <mxCell id="Uo7VwQWX_ubqQY6SiLOP-145" value="get ( )" style="text;html=1;align=center;verticalAlign=middle;resizable=0;points=[];autosize=1;strokeColor=none;fillColor=none;" parent="1" vertex="1">
          <mxGeometry x="353" y="1956" width="50" height="30" as="geometry" />
        </mxCell>
        <mxCell id="Uo7VwQWX_ubqQY6SiLOP-146" value="Display ()" style="text;html=1;align=center;verticalAlign=middle;resizable=0;points=[];autosize=1;strokeColor=none;fillColor=none;" parent="1" vertex="1">
          <mxGeometry x="192" y="2019" width="70" height="30" as="geometry" />
        </mxCell>
        <mxCell id="Uo7VwQWX_ubqQY6SiLOP-147" value="Approve Purchase Order ( )" style="text;html=1;align=center;verticalAlign=middle;resizable=0;points=[];autosize=1;strokeColor=none;fillColor=none;" parent="1" vertex="1">
          <mxGeometry x="-7" y="2058" width="170" height="30" as="geometry" />
        </mxCell>
        <mxCell id="Uo7VwQWX_ubqQY6SiLOP-148" value="Approve Purchase Order ( )" style="text;html=1;align=center;verticalAlign=middle;resizable=0;points=[];autosize=1;strokeColor=none;fillColor=none;" parent="1" vertex="1">
          <mxGeometry x="164" y="2094" width="170" height="30" as="geometry" />
        </mxCell>
        <mxCell id="Uo7VwQWX_ubqQY6SiLOP-149" value="" style="endArrow=open;endFill=1;endSize=12;html=1;rounded=0;" parent="1" edge="1">
          <mxGeometry width="160" relative="1" as="geometry">
            <mxPoint x="176" y="2118" as="sourcePoint" />
            <mxPoint x="336" y="2118" as="targetPoint" />
          </mxGeometry>
        </mxCell>
        <mxCell id="Uo7VwQWX_ubqQY6SiLOP-150" value="" style="endArrow=open;endFill=1;endSize=12;html=1;rounded=0;" parent="1" edge="1">
          <mxGeometry width="160" relative="1" as="geometry">
            <mxPoint x="340" y="2270" as="sourcePoint" />
            <mxPoint x="820" y="2270" as="targetPoint" />
          </mxGeometry>
        </mxCell>
        <mxCell id="Uo7VwQWX_ubqQY6SiLOP-151" value="Send Approve ( )" style="text;html=1;align=center;verticalAlign=middle;resizable=0;points=[];autosize=1;strokeColor=none;fillColor=none;" parent="1" vertex="1">
          <mxGeometry x="340" y="2250" width="110" height="30" as="geometry" />
        </mxCell>
        <mxCell id="Uo7VwQWX_ubqQY6SiLOP-152" value="Send Approve ( )" style="text;html=1;align=center;verticalAlign=middle;resizable=0;points=[];autosize=1;strokeColor=none;fillColor=none;" parent="1" vertex="1">
          <mxGeometry x="824" y="2277" width="110" height="30" as="geometry" />
        </mxCell>
        <mxCell id="Uo7VwQWX_ubqQY6SiLOP-153" value="" style="endArrow=open;endFill=1;endSize=12;html=1;rounded=0;" parent="1" edge="1">
          <mxGeometry width="160" relative="1" as="geometry">
            <mxPoint x="824" y="2300" as="sourcePoint" />
            <mxPoint x="984" y="2300" as="targetPoint" />
          </mxGeometry>
        </mxCell>
        <mxCell id="Uo7VwQWX_ubqQY6SiLOP-154" value="" style="endArrow=open;endFill=1;endSize=12;html=1;rounded=0;" parent="1" edge="1">
          <mxGeometry width="160" relative="1" as="geometry">
            <mxPoint x="330" y="2280" as="sourcePoint" />
            <mxPoint x="171" y="2280" as="targetPoint" />
          </mxGeometry>
        </mxCell>
        <mxCell id="Uo7VwQWX_ubqQY6SiLOP-155" value="Display Complete Msg ( )" style="text;html=1;align=center;verticalAlign=middle;resizable=0;points=[];autosize=1;strokeColor=none;fillColor=none;" parent="1" vertex="1">
          <mxGeometry x="175" y="2250" width="160" height="30" as="geometry" />
        </mxCell>
        <mxCell id="DCI2Nk-3tOIpcYi9pbw7-1" value="Create Purchase Order Controller" style="ellipse;shape=umlControl;whiteSpace=wrap;html=1;" parent="1" vertex="1">
          <mxGeometry x="1719" y="819" width="80" height="90" as="geometry" />
        </mxCell>
        <mxCell id="DCI2Nk-3tOIpcYi9pbw7-2" value="Purchase&amp;nbsp;&lt;br&gt;Order&lt;br&gt;Record" style="ellipse;shape=umlEntity;whiteSpace=wrap;html=1;" parent="1" vertex="1">
          <mxGeometry x="1899" y="945" width="80" height="80" as="geometry" />
        </mxCell>
        <mxCell id="DCI2Nk-3tOIpcYi9pbw7-3" value="Supplier &lt;br&gt;Record" style="ellipse;shape=umlEntity;whiteSpace=wrap;html=1;" parent="1" vertex="1">
          <mxGeometry x="1889" y="670" width="80" height="80" as="geometry" />
        </mxCell>
        <mxCell id="DCI2Nk-3tOIpcYi9pbw7-4" value="Form Email Engine" style="shape=umlBoundary;whiteSpace=wrap;html=1;" parent="1" vertex="1">
          <mxGeometry x="1539" y="975" width="100" height="80" as="geometry" />
        </mxCell>
        <mxCell id="DCI2Nk-3tOIpcYi9pbw7-5" value="Form Create&amp;nbsp;&lt;br&gt;Purchase Order" style="shape=umlBoundary;whiteSpace=wrap;html=1;" parent="1" vertex="1">
          <mxGeometry x="1489" y="750" width="100" height="80" as="geometry" />
        </mxCell>
        <mxCell id="DCI2Nk-3tOIpcYi9pbw7-8" value="" style="endArrow=none;html=1;rounded=0;entryX=0.221;entryY=0.951;entryDx=0;entryDy=0;entryPerimeter=0;startArrow=none;startFill=0;endFill=0;" parent="1" edge="1">
          <mxGeometry width="50" height="50" relative="1" as="geometry">
            <mxPoint x="1629" y="989" as="sourcePoint" />
            <mxPoint x="1736.6799999999998" y="903.5900000000001" as="targetPoint" />
          </mxGeometry>
        </mxCell>
        <mxCell id="DCI2Nk-3tOIpcYi9pbw7-9" value="" style="endArrow=classic;html=1;rounded=0;exitX=0.897;exitY=0.858;exitDx=0;exitDy=0;dashed=1;exitPerimeter=0;" parent="1" source="DCI2Nk-3tOIpcYi9pbw7-1" target="DCI2Nk-3tOIpcYi9pbw7-2" edge="1">
          <mxGeometry width="50" height="50" relative="1" as="geometry">
            <mxPoint x="1749" y="950" as="sourcePoint" />
            <mxPoint x="2019" y="870" as="targetPoint" />
          </mxGeometry>
        </mxCell>
        <mxCell id="DCI2Nk-3tOIpcYi9pbw7-11" value="" style="endArrow=classic;html=1;rounded=0;exitX=0.032;exitY=0.358;exitDx=0;exitDy=0;exitPerimeter=0;dashed=1;" parent="1" source="DCI2Nk-3tOIpcYi9pbw7-1" target="DCI2Nk-3tOIpcYi9pbw7-5" edge="1">
          <mxGeometry width="50" height="50" relative="1" as="geometry">
            <mxPoint x="1689" y="845" as="sourcePoint" />
            <mxPoint x="1739" y="795" as="targetPoint" />
          </mxGeometry>
        </mxCell>
        <mxCell id="DCI2Nk-3tOIpcYi9pbw7-13" value="" style="endArrow=classic;html=1;rounded=0;dashed=1;entryX=0;entryY=1;entryDx=0;entryDy=0;" parent="1" target="DCI2Nk-3tOIpcYi9pbw7-3" edge="1">
          <mxGeometry width="50" height="50" relative="1" as="geometry">
            <mxPoint x="1799" y="847" as="sourcePoint" />
            <mxPoint x="1922" y="916" as="targetPoint" />
          </mxGeometry>
        </mxCell>
      </root>
    </mxGraphModel>
  </diagram>
</mxfile>
